<?xml version="1.0" standalone="no"?>
<!DOCTYPE svg PUBLIC "-//W3C//DTD SVG 1.1//EN" "http://www.w3.org/Graphics/SVG/1.1/DTD/svg11.dtd" >
<svg xmlns="http://www.w3.org/2000/svg">
<metadata></metadata>
<defs>
<font id="sero_probold" horiz-adv-x="1171" >
<font-face units-per-em="2048" ascent="1593" descent="-455" />
<missing-glyph horiz-adv-x="450" />
<glyph horiz-adv-x="0" />
<glyph horiz-adv-x="0" />
<glyph horiz-adv-x="682" />
<glyph unicode="&#xd;" horiz-adv-x="450" />
<glyph unicode=" "  horiz-adv-x="450" />
<glyph unicode="&#x09;" horiz-adv-x="450" />
<glyph unicode="&#xa0;" horiz-adv-x="450" />
<glyph unicode="!" horiz-adv-x="690" d="M156 152q0 76 52.5 126t135.5 50t135.5 -50t52.5 -126t-53 -126.5t-135 -50.5t-135 50.5t-53 126.5zM156 1475h379l-60 -1016h-260z" />
<glyph unicode="&#x22;" horiz-adv-x="919" d="M129 1475h262l-18 -590h-226zM526 1475h262l-18 -590h-225z" />
<glyph unicode="#" d="M8 381v225h193l39 180h-164v226h211l82 381h266l-82 -381h199l82 381h266l-82 -381h145v-226h-192l-39 -180h164v-225h-211l-82 -381h-266l81 381h-198l-82 -381h-266l82 381h-146zM467 606h199l39 180h-199z" />
<glyph unicode="$" horiz-adv-x="1155" d="M66 113l77 268q224 -117 383 -117q107 0 169.5 44.5t62.5 117.5q0 43 -22.5 75.5t-61 53.5t-88 38.5t-104.5 34.5t-110 37t-104.5 50.5t-88 70t-61 101t-22.5 139.5q0 171 104 286.5t281 149.5v176h201v-165q186 -14 356 -111l-77 -277q-178 115 -334 115 q-92 0 -145.5 -39.5t-53.5 -103.5q0 -39 22.5 -69t61 -49t88 -35.5t104.5 -33t110 -36.5t104.5 -51t88 -71.5t61 -103t22.5 -141.5q0 -178 -108.5 -299t-299.5 -156v-217h-201v205q-228 12 -415 113z" />
<glyph unicode="%" horiz-adv-x="1685" d="M88 1137q0 152 93 251t251 99q155 0 247.5 -97.5t92.5 -248.5q0 -152 -93 -251t-251 -99q-155 0 -247.5 97.5t-92.5 248.5zM246 0l915 1475h279l-916 -1475h-278zM328 1137q0 -172 102 -172t102 172t-102 172t-102 -172zM913 334q0 152 93 251t251 99q155 0 247.5 -97.5 t92.5 -248.5q0 -152 -93 -251t-251 -99q-155 0 -247.5 97.5t-92.5 248.5zM1153 334q0 -172 102 -172q103 0 103 172t-103 172q-102 0 -102 -172z" />
<glyph unicode="&#x26;" horiz-adv-x="1273" d="M31 350q0 130 73 218t230 171v2q-34 36 -55 61.5t-44 63.5t-34 81.5t-11 94.5q0 168 122 271.5t331 103.5q201 0 314.5 -93.5t113.5 -238.5q0 -66 -24.5 -122t-72.5 -101t-100 -78.5t-126 -70.5l188 -193q42 65 96 168l211 -119q-51 -100 -137 -221l162 -164l-209 -209 l-154 160q-105 -82 -203.5 -121t-222.5 -39q-205 0 -326.5 99.5t-121.5 275.5zM358 375q0 -72 47 -119t130 -47q107 0 217 90l-258 272q-68 -47 -102 -91t-34 -105zM492 1049q0 -48 25.5 -87t80.5 -96q97 45 146 88t49 103q0 55 -39.5 92t-110.5 37t-111 -39t-40 -98z" />
<glyph unicode="'" horiz-adv-x="522" d="M129 1475h262l-18 -590h-226z" />
<glyph unicode="(" horiz-adv-x="763" d="M63 571q0 142 32.5 273t78.5 224.5t118.5 186.5t128.5 148.5t132 120.5l168 -154q-72 -73 -126.5 -148t-102.5 -172t-73.5 -218.5t-25.5 -260.5t25.5 -260t73.5 -218.5t102.5 -172t126.5 -147.5l-168 -154q-52 45 -93 83t-94.5 96.5t-93 114t-81 131t-68 153t-43.5 174.5 t-17 200z" />
<glyph unicode=")" horiz-adv-x="763" d="M43 -227q72 73 126.5 147.5t102.5 172t73.5 218.5t25.5 260t-25.5 260.5t-73.5 218.5t-102.5 172t-126.5 148l168 154q52 -45 93 -83t94 -96.5t93 -114.5t81 -131.5t67.5 -153t43.5 -174.5t17 -200q0 -142 -32.5 -273t-78.5 -224.5t-118 -186t-128 -148t-132 -120.5z" />
<glyph unicode="*" horiz-adv-x="890" d="M55 1006v178l260 -15l-141 215l152 91l118 -236l119 236l152 -91l-142 -215l261 15v-178l-261 14l142 -215l-152 -90l-119 235l-118 -235l-152 90l141 215z" />
<glyph unicode="+" d="M86 395v254h369v395h262v-395h368v-254h-368v-395h-262v395h-369z" />
<glyph unicode="," horiz-adv-x="616" d="M51 -238q178 108 223 238q-76 6 -122 54.5t-46 119.5q0 76 52 127t137 51q99 0 160 -71t61 -193q0 -267 -323 -457z" />
<glyph unicode="-" horiz-adv-x="831" d="M96 528v220h637v-220h-637z" />
<glyph unicode="." horiz-adv-x="616" d="M111 164q0 80 55.5 134t140.5 54q86 0 141.5 -54t55.5 -134t-56 -134.5t-141 -54.5t-140.5 54.5t-55.5 134.5z" />
<glyph unicode="/" horiz-adv-x="1331" d="M49 -82l899 1557h334l-899 -1557h-334z" />
<glyph unicode="0" horiz-adv-x="1320" d="M82 733q0 184 44 330.5t122.5 241t184.5 144.5t233 50q125 0 230 -49t182 -142.5t120 -238.5t43 -328q0 -184 -44 -330.5t-122.5 -241t-184.5 -144.5t-233 -50q-125 0 -230 49t-182 142.5t-120 238.5t-43 328zM414 733q0 -491 248 -491q247 0 247 491q0 492 -247 492 q-248 0 -248 -492z" />
<glyph unicode="1" horiz-adv-x="823" d="M49 1292l352 183h252v-1475h-323v1135l-189 -99z" />
<glyph unicode="2" horiz-adv-x="1165" d="M63 0v238q246 202 393 356t201 253t54 183q0 86 -52.5 136.5t-146.5 50.5q-183 0 -352 -195l-97 272q87 93 216 150t280 57q219 0 350 -121t131 -325q0 -189 -124 -373.5t-386 -417.5h551v-264h-1018z" />
<glyph unicode="3" horiz-adv-x="1140" d="M25 74l77 272q108 -53 192 -79.5t179 -26.5q121 0 186.5 46.5t65.5 139.5q0 96 -78 142t-248 46q-92 0 -155 -6v250q170 0 273 24t145.5 68.5t42.5 114.5q0 80 -52.5 121t-148.5 41q-81 0 -163 -29t-185 -88l-78 266q225 125 469 125q221 0 354 -97t133 -278 q0 -257 -282 -360q319 -82 319 -360q0 -200 -160.5 -315.5t-431.5 -115.5q-248 0 -454 99z" />
<glyph unicode="4" horiz-adv-x="1292" d="M45 285v250l643 940h369v-924h211v-266h-211v-285h-324v285h-688zM367 551h366v534z" />
<glyph unicode="5" horiz-adv-x="1124" d="M31 74l78 274q110 -53 190 -78.5t176 -25.5q133 0 203 56t70 165q0 227 -316 227q-165 0 -342 -49l27 832h895v-275h-584l-10 -264q73 8 139 8q234 0 377 -124.5t143 -348.5q0 -236 -160.5 -366t-435.5 -130q-244 0 -450 99z" />
<glyph unicode="6" horiz-adv-x="1234" d="M82 725q0 189 47.5 337t133.5 243t204 144.5t262 49.5q214 0 371 -88l-78 -276q-89 45 -156 68.5t-141 23.5q-278 0 -315 -379q135 139 325 139q197 0 318 -133.5t121 -351.5q0 -124 -42 -225t-113.5 -166.5t-165.5 -100.5t-200 -35q-256 0 -413.5 197t-157.5 553z M410 618q31 -382 247 -382q91 0 146 62.5t55 180.5q0 119 -55.5 184.5t-153.5 65.5q-60 0 -115.5 -27t-123.5 -84z" />
<glyph unicode="7" horiz-adv-x="1026" d="M25 1190v285h981v-267q-261 -522 -508 -1208h-363q235 648 498 1190h-608z" />
<glyph unicode="8" horiz-adv-x="1214" d="M47 389q0 73 23 132.5t66.5 102t88.5 70.5t105 54q-219 112 -219 333q0 188 141.5 303t370.5 115q220 0 351.5 -106t131.5 -279q0 -116 -60.5 -192.5t-175.5 -133.5q50 -20 88.5 -40t80 -52.5t68.5 -69.5t44.5 -91t17.5 -117q0 -204 -158 -323.5t-417 -119.5 q-252 0 -399.5 113.5t-147.5 300.5zM379 401q0 -92 61 -143t164 -51q104 0 169 50.5t65 137.5q0 46 -19 82.5t-59 66t-80 50t-105 47.5q-100 -52 -148 -105.5t-48 -134.5zM430 1100q0 -71 48 -117t147 -88q82 45 121.5 91t39.5 112q0 75 -48 118.5t-130 43.5 q-81 0 -129.5 -44t-48.5 -116z" />
<glyph unicode="9" horiz-adv-x="1234" d="M61 973q0 124 41.5 225t113.5 166t166 100t200 35q256 0 413.5 -196t157.5 -551q0 -189 -47.5 -337.5t-134 -244.5t-205 -145.5t-262.5 -49.5q-211 0 -369 88l78 269q89 -45 156 -68.5t141 -23.5q281 0 315 387q-136 -140 -325 -140q-197 0 -318 134t-121 352zM377 985 q0 -117 56.5 -182.5t154.5 -65.5q56 0 111.5 25.5t125.5 83.5q-14 201 -80.5 293t-169.5 92q-89 0 -143.5 -64t-54.5 -182z" />
<glyph unicode=":" horiz-adv-x="616" d="M111 164q0 80 55.5 134t140.5 54q86 0 141.5 -54t55.5 -134t-56 -134.5t-141 -54.5t-140.5 54.5t-55.5 134.5zM111 836q0 80 55.5 134t140.5 54q86 0 141.5 -54t55.5 -134t-56 -134.5t-141 -54.5t-140.5 54.5t-55.5 134.5z" />
<glyph unicode=";" horiz-adv-x="616" d="M51 -238q178 108 223 238q-76 6 -122 54.5t-46 119.5q0 76 52 127t137 51q99 0 160 -71t61 -193q0 -267 -323 -457zM106 836q0 80 55.5 134t141.5 54t141.5 -54t55.5 -134t-56 -134.5t-141 -54.5t-141 54.5t-56 134.5z" />
<glyph unicode="&#x3c;" d="M86 410v225l999 409v-245l-723 -277l723 -276v-246z" />
<glyph unicode="=" d="M86 199v227h999v-227h-999zM86 616v228h999v-228h-999z" />
<glyph unicode="&#x3e;" d="M86 0v246l723 276l-723 277v245l999 -409v-225z" />
<glyph unicode="?" horiz-adv-x="886" d="M80 1219v245q134 35 254 35q220 0 347.5 -98.5t127.5 -282.5q0 -70 -20 -130t-52.5 -102.5t-71 -80t-77.5 -71t-71.5 -67t-52.5 -76.5t-20 -91q0 -31 2 -41h-253q-11 70 -11 110q0 72 31 131t75 99.5t87.5 79t74.5 87t31 105.5q0 85 -63 128.5t-174 43.5q-81 0 -164 -24z M137 152q0 76 53 126t136 50t135.5 -50t52.5 -126t-53 -126.5t-135 -50.5q-83 0 -136 50.5t-53 126.5z" />
<glyph unicode="@" horiz-adv-x="1712" d="M102 528q0 229 100 411.5t282.5 286t414.5 103.5q318 0 514.5 -188.5t196.5 -497.5q0 -118 -31 -210.5t-85 -150t-124 -87t-151 -29.5q-96 0 -158.5 40t-83.5 111q-61 -74 -120.5 -112.5t-141.5 -38.5q-111 0 -180.5 78.5t-69.5 236.5q0 77 17.5 148t54 133.5t89.5 108 t128.5 72t165.5 26.5q139 0 280 -62l-41 -387q-4 -36 -4 -53q0 -123 84 -123q72 0 117 85.5t45 213.5q0 225 -139 361.5t-365 136.5q-171 0 -306 -80.5t-208.5 -220t-73.5 -312.5q0 -130 44 -233t120 -168t175.5 -99t213.5 -34q166 0 375 80l57 -187q-215 -82 -434 -82 q-159 0 -296.5 47.5t-240.5 136.5t-162 228t-59 311zM680 489q0 -135 84 -135q87 0 178 138l31 280q-40 16 -84 16q-59 0 -102.5 -30t-65.5 -78.5t-31.5 -96t-9.5 -94.5z" />
<glyph unicode="A" horiz-adv-x="1423" d="M35 0l485 1475h393l476 -1475h-351l-86 299h-493l-86 -299h-338zM530 547h351l-174 610z" />
<glyph unicode="B" horiz-adv-x="1376" d="M158 0v1475h536q252 0 388.5 -99t136.5 -297q0 -240 -213 -325q139 -40 206.5 -131.5t67.5 -223.5q0 -191 -139.5 -295t-415.5 -104h-567zM485 250h238q118 0 172.5 44t54.5 142t-54.5 142.5t-172.5 44.5h-238v-373zM485 860h187q113 0 165 42.5t52 135.5q0 92 -52 134 t-165 42h-187v-354z" />
<glyph unicode="C" horiz-adv-x="1232" d="M78 721q0 186 51.5 334.5t144 245t219.5 147.5t281 51q225 0 393 -108l-77 -285q-91 57 -161.5 86t-154.5 29q-163 0 -262.5 -122t-99.5 -370t99.5 -366.5t268.5 -118.5q156 0 318 114l78 -260q-196 -123 -441 -123q-299 0 -478 194t-179 552z" />
<glyph unicode="D" horiz-adv-x="1470" d="M158 0v1475h514q161 0 292 -48t225 -139.5t145.5 -231t51.5 -317.5q0 -180 -52.5 -321.5t-148 -232t-225.5 -138t-288 -47.5h-514zM492 268h180q172 0 276.5 113t104.5 350q0 122 -29 213.5t-82 145.5t-120.5 80t-149.5 26h-180v-928z" />
<glyph unicode="E" horiz-adv-x="1206" d="M158 0v1475h968v-279h-634v-319h550v-263h-550v-346h641v-268h-975z" />
<glyph unicode="F" horiz-adv-x="1122" d="M158 0v1475h923v-279h-589v-340h516v-262h-516v-594h-334z" />
<glyph unicode="G" horiz-adv-x="1409" d="M78 719q0 188 52.5 336t149 245t230.5 148t299 51q265 0 461 -133l-78 -285q-96 68 -184.5 104t-194.5 36q-187 0 -294 -121.5t-107 -378.5q0 -488 403 -488q67 0 143 17v303h-241v248h553v-703q-231 -123 -494 -123q-326 0 -512 192t-186 552z" />
<glyph unicode="H" horiz-adv-x="1480" d="M158 0v1475h334v-582h497v582h334v-1475h-334v614h-497v-614h-334z" />
<glyph unicode="I" horiz-adv-x="671" d="M170 0v1475h334v-1475h-334z" />
<glyph unicode="J" horiz-adv-x="841" d="M37 0v272q86 -16 158 -16q105 0 143.5 49t38.5 166v1004h334v-1004q0 -257 -112.5 -370t-375.5 -113q-122 0 -186 12z" />
<glyph unicode="K" horiz-adv-x="1396" d="M158 0v1475h334v-609l454 609h385l-457 -553l496 -922h-366l-345 662l-167 -203v-459h-334z" />
<glyph unicode="L" horiz-adv-x="1105" d="M158 0v1475h334v-1196h575v-279h-909z" />
<glyph unicode="M" horiz-adv-x="1972" d="M139 0l125 1475h428l217 -768q59 -206 76 -316h4q30 150 82 328l225 756h420l117 -1475h-336l-37 737q-6 104 -6 338h-4q-11 -91 -82 -313l-240 -762h-299l-235 762q-73 232 -82 313h-4q0 -226 -6 -330l-39 -745h-324z" />
<glyph unicode="N" horiz-adv-x="1497" d="M158 0v1475h350l522 -859v859h307v-1475h-278l-594 977v-977h-307z" />
<glyph unicode="O" horiz-adv-x="1480" d="M78 733q0 184 50 330t139.5 241t211 145t266.5 50q144 0 264 -49.5t208.5 -143t138 -238.5t49.5 -327q0 -184 -50 -330t-139.5 -241t-211.5 -145t-267 -50q-144 0 -264 49.5t-208 143t-137.5 238.5t-49.5 327zM412 733q0 -128 25 -224t70 -152.5t103.5 -83.5t130.5 -27 t130.5 27t104 83.5t70.5 152.5t25 224t-25 224t-70.5 152.5t-104 84t-130.5 27.5q-150 0 -239.5 -118.5t-89.5 -369.5z" />
<glyph unicode="P" horiz-adv-x="1323" d="M158 0v1475h553q263 0 408 -121.5t145 -354.5q0 -234 -151.5 -354.5t-426.5 -120.5h-199v-524h-329zM487 786h199q126 0 187 50.5t61 156.5q0 107 -61 158t-187 51h-199v-416z" />
<glyph unicode="Q" horiz-adv-x="1492" d="M78 733q0 184 50 330t139 241t210.5 145t265.5 50t264 -49.5t208 -143t137 -238.5t49 -327q0 -328 -150 -520t-403 -229q6 -70 47.5 -97.5t126.5 -27.5q80 0 180 29v-267q-150 -22 -252 -22q-190 0 -282.5 80t-92.5 264v49q-229 49 -363 236.5t-134 496.5zM412 733 q0 -252 89 -370.5t238 -118.5q150 0 240 118.5t90 370.5q0 128 -25 224t-70.5 152.5t-104 84t-130.5 27.5q-149 0 -238 -118.5t-89 -369.5z" />
<glyph unicode="R" horiz-adv-x="1443" d="M158 0v1475h602q250 0 386 -113t136 -330q0 -303 -274 -405l338 -627h-367l-303 586h-191v-586h-327zM485 823h240q118 0 173.5 45.5t55.5 143.5q0 99 -55.5 144.5t-173.5 45.5h-240v-379z" />
<glyph unicode="S" horiz-adv-x="1196" d="M78 92l78 273q227 -123 393 -123q111 0 173 46t62 122q0 45 -23 79.5t-61.5 56.5t-88.5 41t-105 37t-110.5 39t-105.5 52.5t-88.5 73t-61.5 104.5t-23 143q0 212 147 337.5t387 125.5q232 0 424 -115l-78 -286q-183 123 -344 123q-94 0 -148 -42.5t-54 -111.5 q0 -53 37 -89.5t95.5 -58.5t129.5 -43t142.5 -51.5t130 -73t95.5 -119t37 -179.5q0 -220 -155 -349t-410 -129q-122 0 -247 30.5t-228 86.5z" />
<glyph unicode="T" horiz-adv-x="1193" d="M39 1196v279h1116v-279h-391v-1196h-334v1196h-391z" />
<glyph unicode="U" horiz-adv-x="1411" d="M131 532v943h336v-930q0 -161 59 -226t187 -65q126 0 184.5 65t58.5 226v930h324v-930q0 -299 -145 -434.5t-437 -135.5q-285 0 -426 132t-141 425z" />
<glyph unicode="V" horiz-adv-x="1363" d="M35 1475h338l315 -1055l318 1055h323l-479 -1475h-346z" />
<glyph unicode="W" horiz-adv-x="1964" d="M43 1475h350l146 -648q43 -190 63 -387h4q24 201 68 381l157 654h316l156 -652q44 -183 69 -383h4q20 194 64 387l145 648h336l-369 -1475h-325l-168 692q-49 202 -76 381h-4q-30 -204 -74 -383l-174 -690h-325z" />
<glyph unicode="X" horiz-adv-x="1409" d="M66 0l430 760l-412 715h365l262 -486l260 486h352l-412 -715l430 -760h-366l-279 530l-276 -530h-354z" />
<glyph unicode="Y" horiz-adv-x="1329" d="M18 1475h351l301 -572l303 572h338l-480 -881v-594h-333v594z" />
<glyph unicode="Z" horiz-adv-x="1259" d="M59 0v227l678 969h-637v279h1078v-238l-678 -969h680v-268h-1121z" />
<glyph unicode="[" horiz-adv-x="866" d="M137 -369v1844h678v-232h-348v-1380h348v-232h-678z" />
<glyph unicode="\" horiz-adv-x="1331" d="M49 1475h334l899 -1557h-334z" />
<glyph unicode="]" horiz-adv-x="866" d="M51 -137h348v1380h-348v232h678v-1844h-678v232z" />
<glyph unicode="^" d="M63 475l410 1000h225l410 -1000h-246l-276 723l-277 -723h-246z" />
<glyph unicode="_" horiz-adv-x="1007" d="M-8 -96h1024v-223h-1024v223z" />
<glyph unicode="`" horiz-adv-x="1024" d="M160 1475h358l191 -342h-254z" />
<glyph unicode="a" horiz-adv-x="1087" d="M63 303q0 168 113 259t344 91q78 0 146 -8v12q0 86 -42.5 123t-129.5 37q-120 0 -314 -82l-61 242q225 92 446 92q206 0 314 -88t108 -299v-444q0 -190 21 -238h-312q-19 31 -26 111q-124 -136 -295 -136q-138 0 -225 86.5t-87 241.5zM385 336q0 -64 29.5 -94.5 t81.5 -30.5q78 0 170 70v178q-52 10 -97 10q-100 0 -142 -32.5t-42 -100.5z" />
<glyph unicode="b" horiz-adv-x="1202" d="M125 0v1475h330v-560q129 154 301 154q174 0 278.5 -140t104.5 -390q0 -266 -116.5 -415t-295.5 -149q-172 0 -285 158v-133h-317zM455 311q90 -84 172 -84q83 0 132.5 70.5t49.5 218.5q0 144 -48 213.5t-130 69.5q-84 0 -176 -88v-400z" />
<glyph unicode="c" horiz-adv-x="919" d="M63 508q0 267 144.5 414t382.5 147q156 0 278 -72l-61 -252q-56 36 -99.5 54t-95.5 18q-100 0 -159.5 -74t-59.5 -227q0 -152 60 -225.5t165 -73.5q104 0 195 68l64 -232q-136 -78 -314 -78q-229 0 -364.5 137.5t-135.5 395.5z" />
<glyph unicode="d" horiz-adv-x="1202" d="M63 502q0 266 117.5 416.5t296.5 150.5q163 0 271 -141v547h329v-1237q0 -190 21 -238h-320q-21 26 -28 131q-128 -156 -304 -156q-174 0 -278.5 139t-104.5 388zM393 510q0 -143 48 -213t130 -70q85 0 177 88v400q-90 84 -173 84t-132.5 -71t-49.5 -218z" />
<glyph unicode="e" horiz-adv-x="1118" d="M63 506q0 135 40 243t111.5 177.5t167 106t208.5 36.5q212 0 333 -130t121 -386q0 -72 -8 -127h-635q18 -119 81 -168t165 -49q124 0 307 78l62 -224q-192 -88 -416 -88q-251 0 -394 136t-143 395zM397 616h344q0 117 -43 172.5t-116 55.5q-77 0 -126.5 -58t-58.5 -170z " />
<glyph unicode="f" horiz-adv-x="712" d="M33 803v241h149v86q0 187 89 272t290 85q69 0 121 -8v-238q-36 8 -68 8q-59 0 -80.5 -28t-21.5 -91v-86h172v-241h-172v-803h-330v803h-149z" />
<glyph unicode="g" horiz-adv-x="1212" d="M16 -188q0 75 50 133.5t149 93.5q-90 66 -90 162q0 105 123 194q-160 100 -160 289q0 120 66.5 209t176.5 132.5t247 43.5q224 0 358 -113q78 88 197 88q23 0 51 -4v-264q-24 4 -51 4q-41 0 -89 -10q9 -52 9 -78q0 -116 -66.5 -202.5t-177 -130.5t-246.5 -44 q-65 0 -135 13q-16 -26 -16 -58q0 -42 30.5 -54.5t94.5 -12.5h206q182 0 286 -71.5t104 -205.5q0 -120 -84 -207.5t-224.5 -130.5t-318.5 -43q-226 0 -358 70t-132 197zM328 -137q0 -115 223 -115q118 0 186 33t68 96q0 90 -139 90h-250q-88 -33 -88 -104zM420 680 q0 -86 43.5 -127t114.5 -41q73 0 117 41.5t44 130.5q0 87 -43 127.5t-114 40.5q-73 0 -117.5 -41.5t-44.5 -130.5z" />
<glyph unicode="h" horiz-adv-x="1181" d="M125 0v1475h330v-557q151 151 350 151q126 0 201 -68t75 -223v-778h-329v676q0 63 -25.5 90t-73.5 27q-91 0 -198 -93v-700h-330z" />
<glyph unicode="i" horiz-adv-x="604" d="M117 1335q0 76 51 124t135 48t134 -48t50 -124t-50 -124t-134 -48t-135 48t-51 124zM137 0v1044h330v-1044h-330z" />
<glyph unicode="j" horiz-adv-x="604" d="M-33 -197q36 -8 68 -8q59 0 80.5 28t21.5 91v1130h330v-1130q0 -187 -89 -271.5t-290 -84.5q-69 0 -121 8v237zM117 1335q0 76 51 124t135 48t134 -48t50 -124t-50 -124t-134 -48t-135 48t-51 124z" />
<glyph unicode="k" horiz-adv-x="1148" d="M125 0v1475h330v-813l288 382h353l-342 -385l364 -659h-342l-227 428l-94 -106v-322h-330z" />
<glyph unicode="l" horiz-adv-x="604" d="M137 0v1475h330v-1475h-330z" />
<glyph unicode="m" horiz-adv-x="1769" d="M125 0v1044h330v-124q149 149 340 149q196 0 247 -154q164 154 359 154q266 0 266 -291v-778h-330v676q0 63 -22.5 90t-67.5 27q-87 0 -186 -88v-705h-330v676q0 65 -22.5 91t-67.5 26q-88 0 -186 -91v-702h-330z" />
<glyph unicode="n" horiz-adv-x="1181" d="M125 0v1044h330v-126q151 151 350 151q126 0 201 -68t75 -223v-778h-329v676q0 63 -25.5 90t-73.5 27q-91 0 -198 -93v-700h-330z" />
<glyph unicode="o" horiz-adv-x="1148" d="M63 518q0 110 26.5 201.5t74 155.5t112.5 108t141.5 65t162.5 21q107 0 197.5 -33t160.5 -98t109.5 -170.5t39.5 -241.5q0 -110 -26.5 -201.5t-73.5 -155.5t-112 -108t-141.5 -65t-162.5 -21q-107 0 -197.5 33t-160.5 98t-110 170.5t-40 241.5zM393 518q0 -162 50 -236.5 t132 -74.5t132.5 74.5t50.5 236.5t-50.5 236.5t-132.5 74.5t-132 -74.5t-50 -236.5z" />
<glyph unicode="p" horiz-adv-x="1202" d="M125 -430v1474h330v-129q129 154 301 154q174 0 278.5 -140t104.5 -390q0 -266 -116.5 -415t-295.5 -149q-163 0 -272 142v-547h-330zM455 311q90 -84 172 -84q83 0 132.5 70.5t49.5 218.5q0 144 -48 213.5t-130 69.5q-84 0 -176 -88v-400z" />
<glyph unicode="q" horiz-adv-x="1202" d="M63 502q0 265 117 416t295 151q170 0 285 -158v133h317v-1474h-329v559q-129 -154 -302 -154q-174 0 -278.5 139t-104.5 388zM393 510q0 -143 48 -213t130 -70q85 0 177 88v400q-90 84 -173 84t-132.5 -71t-49.5 -218z" />
<glyph unicode="r" horiz-adv-x="827" d="M125 0v1044h330v-157q46 83 119.5 132.5t162.5 49.5q38 0 62 -6v-283q-18 2 -66 2q-61 0 -123 -23t-95.5 -45t-59.5 -46v-668h-330z" />
<glyph unicode="s" horiz-adv-x="960" d="M63 61l62 242q177 -94 311 -94q70 0 107 26.5t37 69.5q0 32 -26.5 54.5t-68 36t-92.5 27t-102 34.5t-92.5 51t-68 84.5t-26.5 128.5q0 160 115.5 254t308.5 94q178 0 336 -84l-61 -250q-145 90 -268 90q-55 0 -84 -21.5t-29 -58.5q0 -31 26 -51t68 -32.5t93 -24.5 t101.5 -32t92.5 -50.5t68 -86t26 -130.5q0 -169 -123 -266t-330 -97q-209 0 -381 86z" />
<glyph unicode="t" horiz-adv-x="759" d="M33 803v241h149v349h330v-349h195v-241h-195v-457q0 -64 19 -87t69 -23q45 0 107 16v-246q-103 -18 -207 -18q-178 0 -248 66t-70 243v506h-149z" />
<glyph unicode="u" horiz-adv-x="1181" d="M102 266v778h330v-686q0 -63 25 -89.5t73 -26.5q94 0 199 92v710h330v-1044h-330v127q-152 -152 -350 -152q-126 0 -201.5 68t-75.5 223z" />
<glyph unicode="v" horiz-adv-x="1040" d="M-2 1044h334l192 -673l197 673h321l-362 -1044h-332z" />
<glyph unicode="w" horiz-adv-x="1515" d="M4 1044h311l107 -428q23 -96 43 -243h4q13 123 43 243l111 428h284l111 -428q29 -109 43 -243h4q22 167 41 243l106 428h301l-284 -1044h-311l-111 432q-34 138 -47 242h-6q-19 -147 -45 -240l-117 -434h-311z" />
<glyph unicode="x" horiz-adv-x="1067" d="M23 0l317 543l-293 501h338l154 -305l153 305h326l-293 -501l317 -543h-337l-179 346l-178 -346h-325z" />
<glyph unicode="y" horiz-adv-x="1040" d="M-2 1044h334l192 -733l199 733h321l-327 -1019q-85 -265 -193 -366t-297 -101q-125 0 -166 8v258q55 -10 111 -10q86 0 135 43t92 168h-86z" />
<glyph unicode="z" horiz-adv-x="1017" d="M45 0v207l498 598h-467v239h874v-200l-497 -598h501v-246h-909z" />
<glyph unicode="{" horiz-adv-x="866" d="M59 438v230h52q87 0 120 31.5t33 115.5v281q0 215 105 297t376 82h60v-232h-60q-87 0 -120 -31.5t-33 -115.5v-281q0 -194 -178 -262q92 -37 135 -101t43 -161v-281q0 -84 33 -115.5t120 -31.5h60v-232h-60q-271 0 -376 82t-105 297v281q0 84 -33 115.5t-120 31.5h-52z " />
<glyph unicode="|" horiz-adv-x="813" d="M244 -369v1844h325v-1844h-325z" />
<glyph unicode="}" horiz-adv-x="866" d="M61 -137h60q87 0 120 31.5t33 115.5v281q0 191 179 262q-179 68 -179 262v281q0 84 -33 115.5t-120 31.5h-60v232h60q271 0 376 -82t105 -297v-281q0 -84 33.5 -115.5t120.5 -31.5h51v-230h-51q-87 0 -120.5 -31.5t-33.5 -115.5v-281q0 -215 -105 -297t-376 -82h-60v232z " />
<glyph unicode="~" d="M43 600q49 37 130 63.5t169 26.5q86 0 246 -41t233 -41q125 0 223 74l82 -238q-48 -37 -130 -63.5t-169 -26.5q-85 0 -245 41t-234 41q-125 0 -223 -74z" />
<glyph unicode="&#xa1;" horiz-adv-x="690" d="M156 -430l59 1016h260l60 -1016h-379zM158 893q0 76 52.5 126t135.5 50t136 -50t53 -126t-53 -126t-136 -50t-135.5 50t-52.5 126z" />
<glyph unicode="&#xa2;" horiz-adv-x="970" d="M63 530q0 179 70.5 308t193 192.5t283.5 63.5q29 0 43 -2l60 254h164l-66 -285q31 -9 88 -39l-63 -246q-64 38 -80 45l-138 -588h17q105 0 209 68l61 -223q-139 -78 -323 -78h-17l-67 -293h-164l72 316q-162 44 -252.5 173t-90.5 334zM387 539q0 -175 82 -248l129 557 q-99 -9 -155 -84.5t-56 -224.5z" />
<glyph unicode="&#xa3;" horiz-adv-x="1026" d="M4 211q64 22 104 40t75.5 43t56 58t34.5 79t21 110l10 96h-252v199h273l28 272q22 207 124 299t329 92q71 0 117 -6v-240q-47 9 -88 9q-83 0 -117.5 -36t-42.5 -118l-29 -272h277v-199h-297l-11 -96q-20 -194 -135 -291q153 -29 217 -29q113 0 224 62l61 -242 q-47 -27 -122.5 -46.5t-153.5 -19.5q-75 0 -215 28t-201 28q-122 0 -223 -62z" />
<glyph unicode="&#xa4;" d="M106 225l154 156q-29 69 -29 143q0 75 29 144l-154 155l181 181l162 -164q65 24 139 24t139 -24l162 164l180 -181l-154 -155q29 -69 29 -144q0 -74 -29 -143l154 -156l-180 -180l-162 164q-67 -25 -139 -25t-139 25l-162 -164zM410 524q0 -75 52 -127.5t126 -52.5 t126 52.5t52 127.5t-52 128t-126 53t-126 -53t-52 -128z" />
<glyph unicode="&#xa5;" horiz-adv-x="1236" d="M18 1475h332l275 -576l274 576h320l-375 -730h252v-198h-314v-117h314v-199h-314v-231h-327v231h-314v199h314v117h-314v198h252z" />
<glyph unicode="&#xa6;" horiz-adv-x="813" d="M244 -369v799h325v-799h-325zM244 676v799h325v-799h-325z" />
<glyph unicode="&#xa7;" horiz-adv-x="1196" d="M88 -14l74 245q178 -98 338 -98q197 0 282 133q-151 17 -273.5 63t-218.5 122.5t-149 194.5t-53 269q0 182 77 315.5t211 201t308 67.5q209 0 383 -92l-74 -256q-158 98 -317 98q-180 0 -260 -125q118 -14 220 -45.5t190 -85t149.5 -125.5t97 -171t35.5 -218 q0 -183 -81 -317t-220.5 -201t-319.5 -67q-213 0 -399 92zM362 893q16 -341 472 -404q-16 337 -472 404z" />
<glyph unicode="&#xa8;" horiz-adv-x="1024" d="M137 1288q0 65 44.5 108.5t111.5 43.5t111.5 -43.5t44.5 -108.5t-44.5 -108t-111.5 -43t-111.5 43t-44.5 108zM575 1288q0 65 44.5 108.5t111.5 43.5t111.5 -43.5t44.5 -108.5t-44.5 -108t-111.5 -43t-111.5 43t-44.5 108z" />
<glyph unicode="&#xa9;" horiz-adv-x="1716" d="M96 737q0 161 59.5 302.5t161 242.5t242.5 159t299 58t299 -58t242.5 -159t161 -242.5t59.5 -302.5t-59.5 -302.5t-161 -242.5t-242.5 -159t-299 -58t-299 58t-242.5 159t-161 242.5t-59.5 302.5zM254 737q0 -130 47 -245t127.5 -196t192 -128t237.5 -47 q167 0 305.5 79.5t218.5 221t80 315.5q0 130 -47 245t-128 196.5t-192.5 128.5t-236.5 47q-168 0 -306.5 -80t-218 -221.5t-79.5 -315.5zM510 725q0 190 107.5 294.5t285.5 104.5q128 0 221 -55l-45 -182q-43 30 -78.5 45.5t-80.5 15.5q-79 0 -128 -53.5t-49 -165.5 q0 -110 49.5 -162.5t133.5 -52.5q77 0 159 53l43 -161q-103 -64 -245 -64q-171 0 -272 99.5t-101 283.5z" />
<glyph unicode="&#xaa;" horiz-adv-x="686" d="M43 967q0 104 69 160.5t212 56.5q36 0 82 -4q0 51 -26 72.5t-79 21.5q-74 0 -192 -47l-41 159q154 56 282 56q131 0 201 -56.5t70 -189.5v-270q0 -120 12 -148h-207q-14 18 -18 58q-71 -74 -175 -74q-83 0 -136.5 54t-53.5 151zM256 987q0 -67 66 -67q40 0 84 28v111 q-12 2 -41 2q-59 0 -84 -18t-25 -56z" />
<glyph unicode="&#xab;" horiz-adv-x="1146" d="M53 522l283 473h297l-271 -473l271 -473h-297zM504 522l282 473h297l-270 -473l270 -473h-297z" />
<glyph unicode="&#xac;" d="M86 539v254h999v-652h-262v398h-737z" />
<glyph unicode="&#xad;" horiz-adv-x="831" d="M96 528v220h637v-220h-637z" />
<glyph unicode="&#xae;" horiz-adv-x="1716" d="M96 737q0 161 59.5 302.5t161 242.5t242.5 159t299 58t299 -58t242.5 -159t161 -242.5t59.5 -302.5t-59.5 -302.5t-161 -242.5t-242.5 -159t-299 -58t-299 58t-242.5 159t-161 242.5t-59.5 302.5zM254 737q0 -130 47 -245t127.5 -196t192 -128t237.5 -47t237.5 47 t192 128t127.5 196t47 245q0 174 -79.5 315.5t-218 221.5t-306.5 80t-306.5 -80t-218 -221.5t-79.5 -315.5zM547 358v750h334q148 0 228.5 -62.5t80.5 -183.5q0 -147 -127 -207l160 -297h-246l-137 260h-68v-260h-225zM772 770h88q54 0 79.5 19.5t25.5 62.5q0 44 -25.5 64 t-79.5 20h-88v-166z" />
<glyph unicode="&#xaf;" horiz-adv-x="1024" d="M152 1147v211h718v-211h-718z" />
<glyph unicode="&#xb0;" horiz-adv-x="880" d="M84 1159q0 147 100.5 243.5t255.5 96.5t256 -96.5t101 -243.5t-101 -243.5t-256 -96.5t-255.5 96.5t-100.5 243.5zM262 1159q0 -78 50 -129t128 -51t128 51t50 129t-50 129t-128 51t-128 -51t-50 -129z" />
<glyph unicode="&#xb1;" d="M86 -72v228h999v-228h-999zM86 524v228h369v292h262v-292h368v-228h-368v-293h-262v293h-369z" />
<glyph unicode="&#xb2;" horiz-adv-x="737" d="M43 778v158q215 175 304 286t89 187q0 48 -30 77.5t-84 29.5q-106 0 -218 -117l-61 182q54 57 134 92t175 35q139 0 222 -76t83 -202q0 -117 -75 -230.5t-228 -243.5h328v-178h-639z" />
<glyph unicode="&#xb3;" horiz-adv-x="722" d="M16 821l52 183q122 -66 227 -66q151 0 151 106q0 55 -45.5 82t-146.5 27q-22 0 -100 -4v162q154 0 217 30t63 91q0 45 -30.5 68.5t-86.5 23.5q-94 0 -217 -72l-49 178q146 78 295 78q138 0 223.5 -61.5t85.5 -173.5q0 -77 -43 -134t-123 -90q189 -50 189 -219 q0 -125 -102 -196.5t-273 -71.5q-152 0 -287 59z" />
<glyph unicode="&#xb4;" horiz-adv-x="1024" d="M313 1133l191 342h358l-295 -342h-254z" />
<glyph unicode="&#xb5;" horiz-adv-x="1206" d="M125 -430v1474h328v-686q0 -63 25 -89.5t73 -26.5q94 0 199 92v710h329v-1044h-329v127q-70 -70 -158 -110.5t-182 -41.5q14 -59 21 -135t8.5 -123t2.5 -147h-317z" />
<glyph unicode="&#xb6;" horiz-adv-x="1122" d="M59 930q0 213 144.5 338t406.5 125v-926q-262 0 -406.5 125t-144.5 338zM383 31q87 21 142.5 41.5t103.5 55.5t70 88.5t22 129.5v1047h270v-1065q0 -123 -33 -210.5t-105 -147.5t-167 -97.5t-237 -67.5z" />
<glyph unicode="&#xb7;" horiz-adv-x="616" d="M111 528q0 80 55.5 134.5t140.5 54.5t141 -54.5t56 -134.5t-55.5 -134t-141.5 -54q-85 0 -140.5 54t-55.5 134z" />
<glyph unicode="&#xb8;" horiz-adv-x="1024" d="M242 -369l37 162q90 -51 172 -51q96 0 96 59q0 79 -160 103l29 114q366 -9 366 -227q0 -104 -81.5 -160.5t-221.5 -56.5q-136 0 -237 57z" />
<glyph unicode="&#xb9;" horiz-adv-x="532" d="M27 1579l219 113h176v-914h-221v682l-115 -59z" />
<glyph unicode="&#xba;" horiz-adv-x="724" d="M43 1100q0 166 92 254t230 88q137 0 227 -87t90 -251q0 -166 -92 -254t-230 -88q-137 0 -227 87t-90 251zM262 1098q0 -97 27.5 -141t72.5 -44t73 44t28 141q0 96 -28 140t-73 44t-72.5 -43.5t-27.5 -140.5z" />
<glyph unicode="&#xbb;" horiz-adv-x="1146" d="M63 49l271 473l-271 473h297l283 -473l-283 -473h-297zM514 49l270 473l-270 473h297l283 -473l-283 -473h-297z" />
<glyph unicode="&#xbc;" horiz-adv-x="1669" d="M27 1362l219 113h176v-914h-221v682l-115 -59zM197 0l929 1475h265l-930 -1475h-264zM881 172v168l397 573h244v-565h131v-176h-131v-172h-215v172h-426zM1096 348h211v307z" />
<glyph unicode="&#xbd;" horiz-adv-x="1736" d="M27 1362l219 113h176v-914h-221v682l-115 -59zM186 0l930 1475h264l-929 -1475h-265zM1042 0v158q215 176 304.5 286.5t89.5 186.5q0 48 -30.5 77t-84.5 29q-106 0 -217 -116l-62 182q54 57 134.5 92t175.5 35q139 0 222 -76.5t83 -202.5q0 -117 -75 -230t-228 -243h327 v-178h-639z" />
<glyph unicode="&#xbe;" horiz-adv-x="1816" d="M16 604l52 182q120 -65 227 -65q151 0 151 106q0 55 -45.5 82t-146.5 27q-22 0 -100 -4v162q154 0 217 29.5t63 90.5q0 45 -30.5 69t-86.5 24q-94 0 -217 -72l-49 178q146 78 295 78q138 0 223.5 -62t85.5 -174q0 -156 -166 -223q189 -50 189 -219q0 -125 -102 -196.5 t-273 -71.5q-152 0 -287 59zM362 0l930 1475h264l-929 -1475h-265zM1028 172v168l397 573h244v-565h131v-176h-131v-172h-215v172h-426zM1243 348h211v307z" />
<glyph unicode="&#xbf;" horiz-adv-x="886" d="M78 -74q0 70 20 130t52 102.5t71 80.5t78 71.5t71 67t52 76.5t20 91q0 31 -2 41h254q11 -70 11 -111q0 -72 -31 -131t-74.5 -99.5t-87.5 -79t-75 -87t-31 -105.5q0 -85 63 -128.5t174 -43.5q77 0 164 25v-246q-134 -35 -254 -35q-220 0 -347.5 98.5t-127.5 282.5z M373 893q0 76 52.5 126t135.5 50t136 -50t53 -126t-53 -126t-136 -50t-135.5 50t-52.5 126z" />
<glyph unicode="&#xc0;" horiz-adv-x="1423" d="M35 0l485 1475h393l476 -1475h-351l-86 299h-493l-86 -299h-338zM358 1862h361l190 -301h-256zM530 547h351l-174 610z" />
<glyph unicode="&#xc1;" horiz-adv-x="1423" d="M35 0l485 1475h393l476 -1475h-351l-86 299h-493l-86 -299h-338zM512 1561l190 301h361l-295 -301h-256zM530 547h351l-174 610z" />
<glyph unicode="&#xc2;" horiz-adv-x="1423" d="M35 0l485 1475h393l476 -1475h-351l-86 299h-493l-86 -299h-338zM317 1561l265 301h258l264 -301h-238l-155 102l-156 -102h-238zM530 547h351l-174 610z" />
<glyph unicode="&#xc3;" horiz-adv-x="1423" d="M35 0l485 1475h393l476 -1475h-351l-86 299h-493l-86 -299h-338zM315 1561q0 155 63.5 226t168.5 71q46 0 95.5 -14t83 -30.5t70.5 -30.5t62 -14q60 0 60 76h188q0 -155 -63.5 -226t-168.5 -71q-59 0 -121 22t-111.5 44t-78.5 22q-59 0 -59 -75h-189zM530 547h351 l-174 610z" />
<glyph unicode="&#xc4;" horiz-adv-x="1423" d="M35 0l485 1475h393l476 -1475h-351l-86 299h-493l-86 -299h-338zM336 1714q0 65 44.5 108.5t111.5 43.5t111 -43.5t44 -108.5t-44 -108t-111 -43t-111.5 43t-44.5 108zM530 547h351l-174 610zM774 1714q0 65 44.5 108.5t111.5 43.5t111 -43.5t44 -108.5t-44 -108 t-111 -43t-111.5 43t-44.5 108z" />
<glyph unicode="&#xc5;" horiz-adv-x="1423" d="M35 0l467 1419q-23 44 -23 94q0 90 67.5 150.5t170.5 60.5t170 -60.5t67 -150.5q0 -52 -22 -94l457 -1419h-351l-86 299h-493l-86 -299h-338zM530 547h351l-174 610zM625 1513q0 -35 25 -59t67 -24t67 24t25 59t-25.5 59.5t-66.5 24.5t-66.5 -24.5t-25.5 -59.5z" />
<glyph unicode="&#xc6;" horiz-adv-x="1935" d="M29 0l755 1475h1071v-279h-569v-319h486v-263h-486v-346h576v-268h-910v299h-428l-139 -299h-356zM641 547h311v665z" />
<glyph unicode="&#xc7;" horiz-adv-x="1232" d="M78 721q0 186 51.5 334.5t144 245t219.5 147.5t281 51q225 0 393 -108l-77 -285q-91 57 -161.5 86t-154.5 29q-163 0 -262.5 -122t-99.5 -370t99.5 -366.5t268.5 -118.5q156 0 318 114l78 -260q-149 -93 -338 -116q135 -55 135 -189q0 -104 -81.5 -160.5t-221.5 -56.5 q-137 0 -238 57l37 162q90 -51 172 -51q96 0 96 59q0 79 -159 103l20 82q-241 41 -380.5 229.5t-139.5 503.5z" />
<glyph unicode="&#xc8;" horiz-adv-x="1206" d="M158 0v1475h968v-279h-634v-319h550v-263h-550v-346h641v-268h-975zM293 1862h360l191 -301h-256z" />
<glyph unicode="&#xc9;" horiz-adv-x="1206" d="M158 0v1475h968v-279h-634v-319h550v-263h-550v-346h641v-268h-975zM446 1561l191 301h360l-295 -301h-256z" />
<glyph unicode="&#xca;" horiz-adv-x="1206" d="M158 0v1475h968v-279h-634v-319h550v-263h-550v-346h641v-268h-975zM252 1561l264 301h258l264 -301h-237l-156 102l-156 -102h-237z" />
<glyph unicode="&#xcb;" horiz-adv-x="1206" d="M158 0v1475h968v-279h-634v-319h550v-263h-550v-346h641v-268h-975zM270 1714q0 65 44.5 108.5t111.5 43.5t111.5 -43.5t44.5 -108.5t-44.5 -108t-111.5 -43t-111.5 43t-44.5 108zM709 1714q0 65 44 108.5t111 43.5t111.5 -43.5t44.5 -108.5t-44.5 -108t-111.5 -43 t-111 43t-44 108z" />
<glyph unicode="&#xcc;" horiz-adv-x="671" d="M-14 1862h360l191 -301h-256zM170 0v1475h334v-1475h-334z" />
<glyph unicode="&#xcd;" horiz-adv-x="671" d="M139 1561l191 301h360l-295 -301h-256zM170 0v1475h334v-1475h-334z" />
<glyph unicode="&#xce;" horiz-adv-x="671" d="M-55 1561l264 301h258l264 -301h-237l-156 102l-156 -102h-237zM170 0v1475h334v-1475h-334z" />
<glyph unicode="&#xcf;" horiz-adv-x="671" d="M-37 1714q0 65 44.5 108.5t111.5 43.5t111 -43.5t44 -108.5t-44 -108t-111 -43t-111.5 43t-44.5 108zM170 0v1475h334v-1475h-334zM401 1714q0 65 44.5 108.5t111.5 43.5t111.5 -43.5t44.5 -108.5t-44.5 -108t-111.5 -43t-111.5 43t-44.5 108z" />
<glyph unicode="&#xd0;" horiz-adv-x="1470" d="M25 641v211h133v623h514q161 0 292 -48t225 -139.5t145.5 -231t51.5 -317.5q0 -180 -52.5 -321.5t-148 -232t-225.5 -138t-288 -47.5h-514v641h-133zM492 268h180q172 0 276.5 113t104.5 350q0 122 -29 213.5t-82 145.5t-120.5 80t-149.5 26h-180v-344h278v-211h-278 v-373z" />
<glyph unicode="&#xd1;" horiz-adv-x="1497" d="M158 0v1475h350l522 -859v859h307v-1475h-278l-594 977v-977h-307zM352 1561q0 155 63.5 226t168.5 71q46 0 95.5 -14t83 -30.5t70.5 -30.5t62 -14q59 0 59 76h189q0 -155 -63.5 -226t-168.5 -71q-59 0 -121 22t-111.5 44t-78.5 22q-59 0 -59 -75h-189z" />
<glyph unicode="&#xd2;" horiz-adv-x="1480" d="M78 733q0 184 50 330t139.5 241t211 145t266.5 50q144 0 264 -49.5t208.5 -143t138 -238.5t49.5 -327q0 -184 -50 -330t-139.5 -241t-211.5 -145t-267 -50q-144 0 -264 49.5t-208 143t-137.5 238.5t-49.5 327zM387 1862h361l190 -301h-256zM412 733q0 -128 25 -224 t70 -152.5t103.5 -83.5t130.5 -27t130.5 27t104 83.5t70.5 152.5t25 224t-25 224t-70.5 152.5t-104 84t-130.5 27.5q-150 0 -239.5 -118.5t-89.5 -369.5z" />
<glyph unicode="&#xd3;" horiz-adv-x="1480" d="M78 733q0 184 50 330t139.5 241t211 145t266.5 50q144 0 264 -49.5t208.5 -143t138 -238.5t49.5 -327q0 -184 -50 -330t-139.5 -241t-211.5 -145t-267 -50q-144 0 -264 49.5t-208 143t-137.5 238.5t-49.5 327zM412 733q0 -128 25 -224t70 -152.5t103.5 -83.5t130.5 -27 t130.5 27t104 83.5t70.5 152.5t25 224t-25 224t-70.5 152.5t-104 84t-130.5 27.5q-150 0 -239.5 -118.5t-89.5 -369.5zM541 1561l190 301h361l-295 -301h-256z" />
<glyph unicode="&#xd4;" horiz-adv-x="1480" d="M78 733q0 184 50 330t139.5 241t211 145t266.5 50q144 0 264 -49.5t208.5 -143t138 -238.5t49.5 -327q0 -184 -50 -330t-139.5 -241t-211.5 -145t-267 -50q-144 0 -264 49.5t-208 143t-137.5 238.5t-49.5 327zM346 1561l264 301h258l265 -301h-238l-156 102l-155 -102 h-238zM412 733q0 -128 25 -224t70 -152.5t103.5 -83.5t130.5 -27t130.5 27t104 83.5t70.5 152.5t25 224t-25 224t-70.5 152.5t-104 84t-130.5 27.5q-150 0 -239.5 -118.5t-89.5 -369.5z" />
<glyph unicode="&#xd5;" horiz-adv-x="1480" d="M78 733q0 184 50 330t139.5 241t211 145t266.5 50q144 0 264 -49.5t208.5 -143t138 -238.5t49.5 -327q0 -184 -50 -330t-139.5 -241t-211.5 -145t-267 -50q-144 0 -264 49.5t-208 143t-137.5 238.5t-49.5 327zM340 1561q0 155 63 226t168 71q59 0 120.5 -22t111.5 -44.5 t80 -22.5q59 0 59 76h188q0 -155 -63 -226t-168 -71q-59 0 -121 22t-111.5 44t-78.5 22q-60 0 -60 -75h-188zM412 733q0 -128 25 -224t70 -152.5t103.5 -83.5t130.5 -27t130.5 27t104 83.5t70.5 152.5t25 224t-25 224t-70.5 152.5t-104 84t-130.5 27.5q-150 0 -239.5 -118.5 t-89.5 -369.5z" />
<glyph unicode="&#xd6;" horiz-adv-x="1480" d="M78 733q0 184 50 330t139.5 241t211 145t266.5 50q144 0 264 -49.5t208.5 -143t138 -238.5t49.5 -327q0 -184 -50 -330t-139.5 -241t-211.5 -145t-267 -50q-144 0 -264 49.5t-208 143t-137.5 238.5t-49.5 327zM365 1714q0 65 44 108.5t111 43.5t111.5 -43.5t44.5 -108.5 t-44.5 -108t-111.5 -43t-111 43t-44 108zM412 733q0 -128 25 -224t70 -152.5t103.5 -83.5t130.5 -27t130.5 27t104 83.5t70.5 152.5t25 224t-25 224t-70.5 152.5t-104 84t-130.5 27.5q-150 0 -239.5 -118.5t-89.5 -369.5zM803 1714q0 65 44 108.5t111 43.5t111.5 -43.5 t44.5 -108.5t-44.5 -108t-111.5 -43t-111 43t-44 108z" />
<glyph unicode="&#xd7;" d="M104 221l299 301l-299 301l181 181l301 -302l301 302l180 -181l-299 -301l299 -301l-180 -180l-301 301l-301 -301z" />
<glyph unicode="&#xd8;" horiz-adv-x="1480" d="M29 104l157 170q-108 184 -108 459q0 184 50 330t139.5 241t211 145t266.5 50q258 0 429 -151l139 151l141 -129l-158 -172q109 -191 109 -457q0 -184 -50 -330t-139.5 -241t-211.5 -145t-267 -50q-257 0 -430 150l-137 -150zM403 731q0 -109 19 -199l549 596 q-83 101 -230 101q-74 0 -133.5 -27.5t-106.5 -85t-72.5 -155.5t-25.5 -230zM508 342q83 -104 233 -104q154 0 246 119.5t92 379.5q0 119 -20 203z" />
<glyph unicode="&#xd9;" horiz-adv-x="1411" d="M131 532v943h336v-930q0 -161 59 -226t187 -65q126 0 184.5 65t58.5 226v930h324v-930q0 -299 -145 -434.5t-437 -135.5q-285 0 -426 132t-141 425zM352 1862h361l190 -301h-256z" />
<glyph unicode="&#xda;" horiz-adv-x="1411" d="M131 532v943h336v-930q0 -161 59 -226t187 -65q126 0 184.5 65t58.5 226v930h324v-930q0 -299 -145 -434.5t-437 -135.5q-285 0 -426 132t-141 425zM506 1561l190 301h361l-295 -301h-256z" />
<glyph unicode="&#xdb;" horiz-adv-x="1411" d="M131 532v943h336v-930q0 -161 59 -226t187 -65q126 0 184.5 65t58.5 226v930h324v-930q0 -299 -145 -434.5t-437 -135.5q-285 0 -426 132t-141 425zM311 1561l264 301h259l264 -301h-238l-155 102l-156 -102h-238z" />
<glyph unicode="&#xdc;" horiz-adv-x="1411" d="M131 532v943h336v-930q0 -161 59 -226t187 -65q126 0 184.5 65t58.5 226v930h324v-930q0 -299 -145 -434.5t-437 -135.5q-285 0 -426 132t-141 425zM330 1714q0 65 44 108.5t111 43.5t111.5 -43.5t44.5 -108.5t-44.5 -108t-111.5 -43t-111 43t-44 108zM768 1714 q0 65 44.5 108.5t111.5 43.5t111 -43.5t44 -108.5t-44 -108t-111 -43t-111.5 43t-44.5 108z" />
<glyph unicode="&#xdd;" horiz-adv-x="1329" d="M18 1475h351l301 -572l303 572h338l-480 -881v-594h-333v594zM471 1561l191 301h360l-295 -301h-256z" />
<glyph unicode="&#xde;" horiz-adv-x="1318" d="M158 0v1475h329v-205h224q263 0 408 -121t145 -354q0 -234 -151.5 -355t-426.5 -121h-199v-319h-329zM487 582h199q126 0 187 50.5t61 155.5q0 107 -61 158t-187 51h-199v-415z" />
<glyph unicode="&#xdf;" horiz-adv-x="1292" d="M125 0v1012q0 236 140.5 361.5t375.5 125.5q211 0 340 -101t129 -290q0 -228 -203 -320q322 -98 322 -399q0 -196 -122.5 -305t-326.5 -109q-126 0 -221 37l39 232q86 -33 145 -33q72 0 114 47.5t42 144.5q0 70 -22.5 121.5t-63.5 81t-93 43t-118 13.5v237q87 0 141 44.5 t54 141.5q0 87 -43.5 128.5t-114.5 41.5q-83 0 -133.5 -58t-50.5 -185v-1012h-330z" />
<glyph unicode="&#xe0;" horiz-adv-x="1087" d="M63 303q0 168 113 259t344 91q78 0 146 -8v12q0 86 -42.5 123t-129.5 37q-120 0 -314 -82l-61 242q225 92 446 92q206 0 314 -88t108 -299v-444q0 -190 21 -238h-312q-19 31 -26 111q-124 -136 -295 -136q-138 0 -225 86.5t-87 241.5zM207 1475h358l191 -342h-254z M385 336q0 -64 29.5 -94.5t81.5 -30.5q78 0 170 70v178q-52 10 -97 10q-100 0 -142 -32.5t-42 -100.5z" />
<glyph unicode="&#xe1;" horiz-adv-x="1087" d="M63 303q0 168 113 259t344 91q78 0 146 -8v12q0 86 -42.5 123t-129.5 37q-120 0 -314 -82l-61 242q225 92 446 92q206 0 314 -88t108 -299v-444q0 -190 21 -238h-312q-19 31 -26 111q-124 -136 -295 -136q-138 0 -225 86.5t-87 241.5zM360 1133l191 342h358l-295 -342 h-254zM385 336q0 -64 29.5 -94.5t81.5 -30.5q78 0 170 70v178q-52 10 -97 10q-100 0 -142 -32.5t-42 -100.5z" />
<glyph unicode="&#xe2;" horiz-adv-x="1087" d="M63 303q0 168 113 259t344 91q78 0 146 -8v12q0 86 -42.5 123t-129.5 37q-120 0 -314 -82l-61 242q225 92 446 92q206 0 314 -88t108 -299v-444q0 -190 21 -238h-312q-19 31 -26 111q-124 -136 -295 -136q-138 0 -225 86.5t-87 241.5zM168 1133l264 342h254l264 -342 h-233l-158 141l-158 -141h-233zM385 336q0 -64 29.5 -94.5t81.5 -30.5q78 0 170 70v178q-52 10 -97 10q-100 0 -142 -32.5t-42 -100.5z" />
<glyph unicode="&#xe3;" horiz-adv-x="1087" d="M63 303q0 168 113 259t344 91q78 0 146 -8v12q0 86 -42.5 123t-129.5 37q-120 0 -314 -82l-61 242q225 92 446 92q206 0 314 -88t108 -299v-444q0 -190 21 -238h-312q-19 31 -26 111q-124 -136 -295 -136q-138 0 -225 86.5t-87 241.5zM166 1145q0 158 62.5 232.5 t164.5 74.5q47 0 97 -17t84.5 -37.5t71 -37.5t59.5 -17q63 0 63 97h184q0 -158 -62.5 -232.5t-164.5 -74.5q-60 0 -122 27t-111.5 54t-77.5 27q-64 0 -64 -96h-184zM385 336q0 -64 29.5 -94.5t81.5 -30.5q78 0 170 70v178q-52 10 -97 10q-100 0 -142 -32.5t-42 -100.5z" />
<glyph unicode="&#xe4;" horiz-adv-x="1087" d="M63 303q0 168 113 259t344 91q78 0 146 -8v12q0 86 -42.5 123t-129.5 37q-120 0 -314 -82l-61 242q225 92 446 92q206 0 314 -88t108 -299v-444q0 -190 21 -238h-312q-19 31 -26 111q-124 -136 -295 -136q-138 0 -225 86.5t-87 241.5zM184 1288q0 65 44.5 108.5 t111.5 43.5t111.5 -43.5t44.5 -108.5t-44.5 -108t-111.5 -43t-111.5 43t-44.5 108zM385 336q0 -64 29.5 -94.5t81.5 -30.5q78 0 170 70v178q-52 10 -97 10q-100 0 -142 -32.5t-42 -100.5zM623 1288q0 65 44 108.5t111 43.5t111.5 -43.5t44.5 -108.5t-44.5 -108t-111.5 -43 t-111 43t-44 108z" />
<glyph unicode="&#xe5;" horiz-adv-x="1087" d="M63 303q0 168 113 259t344 91q78 0 146 -8v12q0 86 -42.5 123t-129.5 37q-120 0 -314 -82l-61 242q225 92 446 92q206 0 314 -88t108 -299v-444q0 -190 21 -238h-312q-19 31 -26 111q-124 -136 -295 -136q-138 0 -225 86.5t-87 241.5zM342 1341q0 90 62 150.5t155 60.5 t155 -60.5t62 -150.5t-62 -150.5t-155 -60.5t-155 60.5t-62 150.5zM385 336q0 -64 29.5 -94.5t81.5 -30.5q78 0 170 70v178q-52 10 -97 10q-100 0 -142 -32.5t-42 -100.5zM473 1341q0 -35 23.5 -59.5t62.5 -24.5t62.5 24.5t23.5 59.5t-23.5 59.5t-62.5 24.5t-62.5 -24.5 t-23.5 -59.5z" />
<glyph unicode="&#xe6;" horiz-adv-x="1708" d="M63 303q0 169 114 259.5t343 90.5q78 0 146 -8v12q0 86 -42.5 123t-129.5 37q-120 0 -314 -82l-61 242q225 92 446 92q207 0 309 -86q130 86 306 86q212 0 333 -130t121 -386q0 -72 -8 -127h-635q18 -119 81 -168t165 -49q124 0 307 78l62 -224q-192 -88 -416 -88 q-279 0 -418 160q-75 -73 -172 -116.5t-205 -43.5q-150 0 -241 86t-91 242zM383 334q0 -62 30.5 -92.5t82.5 -30.5q87 0 188 82q-25 81 -31 168q-50 8 -88 8q-97 0 -139.5 -33.5t-42.5 -101.5zM987 616h344q0 117 -43 172.5t-117 55.5q-77 0 -126 -58t-58 -170z" />
<glyph unicode="&#xe7;" horiz-adv-x="919" d="M63 508q0 267 144.5 414t382.5 147q156 0 278 -72l-61 -252q-56 36 -99.5 54t-95.5 18q-100 0 -159.5 -74t-59.5 -227q0 -152 60 -225.5t165 -73.5q104 0 195 68l64 -232q-87 -51 -207 -69q143 -56 143 -193q0 -104 -81.5 -160.5t-221.5 -56.5q-137 0 -238 57l37 162 q90 -51 172 -51q97 0 97 59q0 79 -160 103l20 84q-175 35 -275 167.5t-100 352.5z" />
<glyph unicode="&#xe8;" horiz-adv-x="1118" d="M63 506q0 135 40 243t111.5 177.5t167 106t208.5 36.5q212 0 333 -130t121 -386q0 -72 -8 -127h-635q18 -119 81 -168t165 -49q124 0 307 78l62 -224q-192 -88 -416 -88q-251 0 -394 136t-143 395zM229 1475h359l190 -342h-254zM397 616h344q0 117 -43 172.5t-116 55.5 q-77 0 -126.5 -58t-58.5 -170z" />
<glyph unicode="&#xe9;" horiz-adv-x="1118" d="M63 506q0 135 40 243t111.5 177.5t167 106t208.5 36.5q212 0 333 -130t121 -386q0 -72 -8 -127h-635q18 -119 81 -168t165 -49q124 0 307 78l62 -224q-192 -88 -416 -88q-251 0 -394 136t-143 395zM352 1133l191 342h358l-295 -342h-254zM397 616h344q0 117 -43 172.5 t-116 55.5q-77 0 -126.5 -58t-58.5 -170z" />
<glyph unicode="&#xea;" horiz-adv-x="1118" d="M63 506q0 135 40 243t111.5 177.5t167 106t208.5 36.5q212 0 333 -130t121 -386q0 -72 -8 -127h-635q18 -119 81 -168t165 -49q124 0 307 78l62 -224q-192 -88 -416 -88q-251 0 -394 136t-143 395zM176 1133l264 342h254l264 -342h-233l-158 141l-157 -141h-234zM397 616 h344q0 117 -43 172.5t-116 55.5q-77 0 -126.5 -58t-58.5 -170z" />
<glyph unicode="&#xeb;" horiz-adv-x="1118" d="M63 506q0 135 40 243t111.5 177.5t167 106t208.5 36.5q212 0 333 -130t121 -386q0 -72 -8 -127h-635q18 -119 81 -168t165 -49q124 0 307 78l62 -224q-192 -88 -416 -88q-251 0 -394 136t-143 395zM193 1288q0 65 44 108.5t111 43.5t111.5 -43.5t44.5 -108.5t-44.5 -108 t-111.5 -43t-111 43t-44 108zM397 616h344q0 117 -43 172.5t-116 55.5q-77 0 -126.5 -58t-58.5 -170zM631 1288q0 65 44 108.5t111 43.5t111.5 -43.5t44.5 -108.5t-44.5 -108t-111.5 -43t-111 43t-44 108z" />
<glyph unicode="&#xec;" horiz-adv-x="604" d="M-49 1475h358l191 -342h-254zM137 0v1044h330v-1044h-330z" />
<glyph unicode="&#xed;" horiz-adv-x="604" d="M104 1133l191 342h358l-295 -342h-254zM137 0v1044h330v-1044h-330z" />
<glyph unicode="&#xee;" horiz-adv-x="604" d="M-88 1133l264 342h254l264 -342h-233l-158 141l-158 -141h-233zM137 0v1044h330v-1044h-330z" />
<glyph unicode="&#xef;" horiz-adv-x="604" d="M-72 1288q0 65 44.5 108.5t111.5 43.5t111.5 -43.5t44.5 -108.5t-44.5 -108t-111.5 -43t-111.5 43t-44.5 108zM137 0v1044h330v-1044h-330zM367 1288q0 65 44 108.5t111 43.5t111.5 -43.5t44.5 -108.5t-44.5 -108t-111.5 -43t-111 43t-44 108z" />
<glyph unicode="&#xf0;" horiz-adv-x="1148" d="M63 492q0 123 35.5 222t96 161.5t138 95.5t165.5 33q128 0 219 -84q-40 117 -96 208l-129 -71l-86 153l106 60q-38 44 -84 90l186 172q53 -44 138 -129l143 80l88 -154l-117 -63q98 -134 158.5 -325.5t60.5 -383.5q0 -285 -137.5 -433.5t-376.5 -148.5q-110 0 -202 32.5 t-161 95t-107 162t-38 227.5zM393 485q0 -143 50 -208.5t132 -65.5q81 0 131 65.5t50 208.5t-50 209t-131 66q-82 0 -132 -66t-50 -209z" />
<glyph unicode="&#xf1;" horiz-adv-x="1181" d="M125 0v1044h330v-126q151 151 350 151q126 0 201 -68t75 -223v-778h-329v676q0 63 -25.5 90t-73.5 27q-91 0 -198 -93v-700h-330zM209 1145q0 158 62.5 232.5t164.5 74.5q47 0 97 -17t84.5 -37.5t71 -37.5t59.5 -17q63 0 63 97h184q0 -158 -62.5 -232.5t-164.5 -74.5 q-60 0 -122 27t-111.5 54t-77.5 27q-64 0 -64 -96h-184z" />
<glyph unicode="&#xf2;" horiz-adv-x="1148" d="M63 518q0 110 26.5 201.5t74 155.5t112.5 108t141.5 65t162.5 21q107 0 197.5 -33t160.5 -98t109.5 -170.5t39.5 -241.5q0 -110 -26.5 -201.5t-73.5 -155.5t-112 -108t-141.5 -65t-162.5 -21q-107 0 -197.5 33t-160.5 98t-110 170.5t-40 241.5zM221 1475h359l190 -342 h-254zM393 518q0 -162 50 -236.5t132 -74.5t132.5 74.5t50.5 236.5t-50.5 236.5t-132.5 74.5t-132 -74.5t-50 -236.5z" />
<glyph unicode="&#xf3;" horiz-adv-x="1148" d="M63 518q0 110 26.5 201.5t74 155.5t112.5 108t141.5 65t162.5 21q107 0 197.5 -33t160.5 -98t109.5 -170.5t39.5 -241.5q0 -110 -26.5 -201.5t-73.5 -155.5t-112 -108t-141.5 -65t-162.5 -21q-107 0 -197.5 33t-160.5 98t-110 170.5t-40 241.5zM375 1133l190 342h359 l-295 -342h-254zM393 518q0 -162 50 -236.5t132 -74.5t132.5 74.5t50.5 236.5t-50.5 236.5t-132.5 74.5t-132 -74.5t-50 -236.5z" />
<glyph unicode="&#xf4;" horiz-adv-x="1148" d="M63 518q0 110 26.5 201.5t74 155.5t112.5 108t141.5 65t162.5 21q107 0 197.5 -33t160.5 -98t109.5 -170.5t39.5 -241.5q0 -110 -26.5 -201.5t-73.5 -155.5t-112 -108t-141.5 -65t-162.5 -21q-107 0 -197.5 33t-160.5 98t-110 170.5t-40 241.5zM182 1133l264 342h254 l265 -342h-234l-158 141l-157 -141h-234zM393 518q0 -162 50 -236.5t132 -74.5t132.5 74.5t50.5 236.5t-50.5 236.5t-132.5 74.5t-132 -74.5t-50 -236.5z" />
<glyph unicode="&#xf5;" horiz-adv-x="1148" d="M63 518q0 110 26.5 201.5t74 155.5t112.5 108t141.5 65t162.5 21q107 0 197.5 -33t160.5 -98t109.5 -170.5t39.5 -241.5q0 -110 -26.5 -201.5t-73.5 -155.5t-112 -108t-141.5 -65t-162.5 -21q-107 0 -197.5 33t-160.5 98t-110 170.5t-40 241.5zM180 1145q0 158 63 232.5 t165 74.5q47 0 97 -17t84 -37.5t70.5 -37.5t59.5 -17q63 0 63 97h185q0 -158 -63 -232.5t-165 -74.5q-60 0 -122 27t-111.5 54t-77.5 27q-63 0 -63 -96h-185zM393 518q0 -162 50 -236.5t132 -74.5t132.5 74.5t50.5 236.5t-50.5 236.5t-132.5 74.5t-132 -74.5t-50 -236.5z " />
<glyph unicode="&#xf6;" horiz-adv-x="1148" d="M63 518q0 110 26.5 201.5t74 155.5t112.5 108t141.5 65t162.5 21q107 0 197.5 -33t160.5 -98t109.5 -170.5t39.5 -241.5q0 -110 -26.5 -201.5t-73.5 -155.5t-112 -108t-141.5 -65t-162.5 -21q-107 0 -197.5 33t-160.5 98t-110 170.5t-40 241.5zM199 1288q0 65 44 108.5 t111 43.5t111.5 -43.5t44.5 -108.5t-44.5 -108t-111.5 -43t-111 43t-44 108zM393 518q0 -162 50 -236.5t132 -74.5t132.5 74.5t50.5 236.5t-50.5 236.5t-132.5 74.5t-132 -74.5t-50 -236.5zM637 1288q0 65 44.5 108.5t111.5 43.5t111 -43.5t44 -108.5t-44 -108t-111 -43 t-111.5 43t-44.5 108z" />
<glyph unicode="&#xf7;" d="M86 395v254h999v-254h-999zM414 143q0 71 46.5 114.5t125.5 43.5q81 0 126.5 -43t45.5 -115q0 -73 -45.5 -116t-126.5 -43q-79 0 -125.5 43.5t-46.5 115.5zM414 901q0 72 46.5 116t125.5 44q81 0 126.5 -43.5t45.5 -116.5q0 -72 -45.5 -115t-126.5 -43q-79 0 -125.5 43.5 t-46.5 114.5z" />
<glyph unicode="&#xf8;" horiz-adv-x="1148" d="M37 39l119 133q-93 140 -93 346q0 110 26.5 201.5t74 155.5t112.5 108t141.5 65t162.5 21q175 0 303 -88l112 127l119 -102l-121 -136q94 -137 94 -344q0 -110 -26.5 -201.5t-73.5 -155.5t-112 -108t-141.5 -65t-162.5 -21q-176 0 -303 86l-112 -124zM375 520 q0 -55 6 -98l326 364q-50 62 -132 62q-90 0 -145 -78.5t-55 -249.5zM440 252q50 -64 135 -64q91 0 146 79t55 251q0 56 -6 103z" />
<glyph unicode="&#xf9;" horiz-adv-x="1181" d="M102 266v778h330v-686q0 -63 25 -89.5t73 -26.5q94 0 199 92v710h330v-1044h-330v127q-152 -152 -350 -152q-126 0 -201.5 68t-75.5 223zM227 1475h359l190 -342h-254z" />
<glyph unicode="&#xfa;" horiz-adv-x="1181" d="M102 266v778h330v-686q0 -63 25 -89.5t73 -26.5q94 0 199 92v710h330v-1044h-330v127q-152 -152 -350 -152q-126 0 -201.5 68t-75.5 223zM381 1133l190 342h359l-295 -342h-254z" />
<glyph unicode="&#xfb;" horiz-adv-x="1181" d="M102 266v778h330v-686q0 -63 25 -89.5t73 -26.5q94 0 199 92v710h330v-1044h-330v127q-152 -152 -350 -152q-126 0 -201.5 68t-75.5 223zM188 1133l265 342h254l264 -342h-234l-157 141l-158 -141h-234z" />
<glyph unicode="&#xfc;" horiz-adv-x="1181" d="M102 266v778h330v-686q0 -63 25 -89.5t73 -26.5q94 0 199 92v710h330v-1044h-330v127q-152 -152 -350 -152q-126 0 -201.5 68t-75.5 223zM205 1288q0 65 44 108.5t111 43.5t111.5 -43.5t44.5 -108.5t-44.5 -108t-111.5 -43t-111 43t-44 108zM643 1288q0 65 44.5 108.5 t111.5 43.5t111 -43.5t44 -108.5t-44 -108t-111 -43t-111.5 43t-44.5 108z" />
<glyph unicode="&#xfd;" horiz-adv-x="1040" d="M-2 1044h334l192 -733l199 733h321l-327 -1019q-85 -265 -193 -366t-297 -101q-125 0 -166 8v258q55 -10 111 -10q86 0 135 43t92 168h-86zM328 1133l190 342h359l-295 -342h-254z" />
<glyph unicode="&#xfe;" horiz-adv-x="1202" d="M125 -430v1905h330v-545q67 66 135.5 102.5t161.5 36.5q173 0 280 -138t107 -394q0 -139 -33.5 -248t-91 -176.5t-131.5 -102.5t-158 -35q-83 0 -144.5 32t-125.5 97v-534h-330zM455 303q84 -76 172 -76q79 0 130.5 66t51.5 223q0 152 -49 217.5t-127 65.5 q-85 0 -178 -84v-412z" />
<glyph unicode="&#xff;" horiz-adv-x="1040" d="M-2 1044h334l192 -733l199 733h321l-327 -1019q-85 -265 -193 -366t-297 -101q-125 0 -166 8v258q55 -10 111 -10q86 0 135 43t92 168h-86zM145 1288q0 65 44.5 108.5t111.5 43.5t111.5 -43.5t44.5 -108.5t-44.5 -108t-111.5 -43t-111.5 43t-44.5 108zM584 1288 q0 65 44 108.5t111 43.5t111.5 -43.5t44.5 -108.5t-44.5 -108t-111.5 -43t-111 43t-44 108z" />
<glyph unicode="&#x152;" horiz-adv-x="1912" d="M78 721q0 188 52 336.5t145.5 244.5t221 146.5t281.5 50.5q102 0 215 -24h840v-279h-569v-319h485v-263h-485v-346h575v-268h-876q-109 -25 -218 -25q-149 0 -271.5 48.5t-210.5 141t-136.5 234.5t-48.5 322zM412 731q0 -249 101 -368t275 -119q74 0 142 18v934 q-70 25 -144 25q-173 0 -273.5 -121t-100.5 -369z" />
<glyph unicode="&#x153;" horiz-adv-x="1806" d="M63 518q0 110 26.5 201.5t74 155.5t112.5 108t141.5 65t162.5 21q213 0 346 -121q139 121 352 121q212 0 333.5 -130.5t121.5 -385.5q0 -65 -9 -127h-634q18 -119 80.5 -168t164.5 -49q124 0 307 78l62 -224q-192 -88 -418 -88q-235 0 -371 115q-136 -115 -344 -115 q-107 0 -197.5 33t-160.5 98t-110 170.5t-40 241.5zM393 518q0 -162 50 -236.5t132 -74.5t132.5 74.5t50.5 236.5t-50.5 236.5t-132.5 74.5t-132 -74.5t-50 -236.5zM1085 616h345q0 117 -43 172.5t-117 55.5q-77 0 -126.5 -58t-58.5 -170z" />
<glyph unicode="&#x178;" horiz-adv-x="1329" d="M18 1475h351l301 -572l303 572h338l-480 -881v-594h-333v594zM289 1714q0 65 44 108.5t111 43.5t111.5 -43.5t44.5 -108.5t-44.5 -108t-111.5 -43t-111 43t-44 108zM727 1714q0 65 44.5 108.5t111.5 43.5t111 -43.5t44 -108.5t-44 -108t-111 -43t-111.5 43t-44.5 108z " />
<glyph unicode="&#x2c6;" horiz-adv-x="1024" d="M121 1133l264 342h254l264 -342h-233l-158 141l-158 -141h-233z" />
<glyph unicode="&#x2dc;" horiz-adv-x="1024" d="M119 1145q0 158 62.5 232.5t164.5 74.5q47 0 97 -17t84 -37.5t70.5 -37.5t59.5 -17q64 0 64 97h184q0 -158 -62.5 -232.5t-164.5 -74.5q-60 0 -122 27t-111.5 54t-77.5 27q-64 0 -64 -96h-184z" />
<glyph unicode="&#x2000;" horiz-adv-x="933" />
<glyph unicode="&#x2001;" horiz-adv-x="1866" />
<glyph unicode="&#x2002;" horiz-adv-x="933" />
<glyph unicode="&#x2003;" horiz-adv-x="1866" />
<glyph unicode="&#x2004;" horiz-adv-x="622" />
<glyph unicode="&#x2005;" horiz-adv-x="466" />
<glyph unicode="&#x2006;" horiz-adv-x="311" />
<glyph unicode="&#x2007;" horiz-adv-x="311" />
<glyph unicode="&#x2008;" horiz-adv-x="233" />
<glyph unicode="&#x2009;" horiz-adv-x="373" />
<glyph unicode="&#x200a;" horiz-adv-x="103" />
<glyph unicode="&#x2010;" horiz-adv-x="831" d="M96 528v220h637v-220h-637z" />
<glyph unicode="&#x2011;" horiz-adv-x="831" d="M96 528v220h637v-220h-637z" />
<glyph unicode="&#x2012;" horiz-adv-x="831" d="M96 528v220h637v-220h-637z" />
<glyph unicode="&#x2013;" horiz-adv-x="1024" d="M82 502v272h860v-272h-860z" />
<glyph unicode="&#x2014;" horiz-adv-x="2048" d="M82 502v272h1884v-272h-1884z" />
<glyph unicode="&#x2018;" horiz-adv-x="585" d="M70 1042q0 267 323 457l142 -131q-179 -109 -224 -238q76 -6 122 -54.5t46 -119.5q0 -77 -51.5 -127.5t-136.5 -50.5q-99 0 -160 71t-61 193z" />
<glyph unicode="&#x2019;" horiz-adv-x="585" d="M51 909q178 108 223 238q-76 6 -122 54.5t-46 119.5q0 76 52 127t137 51q99 0 160 -71t61 -193q0 -267 -323 -457z" />
<glyph unicode="&#x201a;" horiz-adv-x="585" d="M51 -238q178 108 223 238q-76 6 -122 54.5t-46 119.5q0 76 52 127t137 51q99 0 160 -71t61 -193q0 -267 -323 -457z" />
<glyph unicode="&#x201c;" horiz-adv-x="1069" d="M70 1042q0 267 323 457l142 -131q-179 -109 -224 -238q76 -6 122 -54.5t46 -119.5q0 -77 -51.5 -127.5t-136.5 -50.5q-99 0 -160 71t-61 193zM553 1042q0 266 324 457l141 -131q-178 -108 -223 -238q76 -6 122 -54.5t46 -119.5q0 -76 -52 -127t-137 -51q-99 0 -160 71 t-61 193z" />
<glyph unicode="&#x201d;" horiz-adv-x="1069" d="M51 909q178 108 223 238q-76 6 -122 54.5t-46 119.5q0 76 52 127t137 51q99 0 160 -71t61 -193q0 -267 -323 -457zM535 909q178 108 223 238q-76 6 -122 54.5t-46 119.5q0 77 51.5 127.5t136.5 50.5q99 0 160 -71t61 -193q0 -267 -323 -457z" />
<glyph unicode="&#x201e;" horiz-adv-x="1069" d="M51 -238q178 108 223 238q-76 6 -122 54.5t-46 119.5q0 76 52 127t137 51q99 0 160 -71t61 -193q0 -267 -323 -457zM535 -238q178 108 223 238q-76 6 -122 54.5t-46 119.5q0 77 51.5 127.5t136.5 50.5q99 0 160 -71t61 -193q0 -267 -323 -457z" />
<glyph unicode="&#x2022;" horiz-adv-x="946" d="M195 719q0 120 79 198t199 78t199.5 -78t79.5 -198t-79.5 -198.5t-199.5 -78.5t-199 78.5t-79 198.5z" />
<glyph unicode="&#x2026;" horiz-adv-x="1640" d="M111 164q0 80 55.5 134t140.5 54q86 0 141.5 -54t55.5 -134t-56 -134.5t-141 -54.5t-140.5 54.5t-55.5 134.5zM623 164q0 80 55.5 134t140.5 54q86 0 141.5 -54t55.5 -134t-56 -134.5t-141 -54.5t-140.5 54.5t-55.5 134.5zM1135 164q0 80 55.5 134t140.5 54 q86 0 141.5 -54t55.5 -134t-56 -134.5t-141 -54.5t-140.5 54.5t-55.5 134.5z" />
<glyph unicode="&#x202f;" horiz-adv-x="373" />
<glyph unicode="&#x2039;" horiz-adv-x="696" d="M53 522l283 473h297l-271 -473l271 -473h-297z" />
<glyph unicode="&#x203a;" horiz-adv-x="696" d="M63 49l271 473l-271 473h297l283 -473l-283 -473h-297z" />
<glyph unicode="&#x205f;" horiz-adv-x="466" />
<glyph unicode="&#x20ac;" horiz-adv-x="1275" d="M39 473v199h188v49q0 44 2 67h-190v199h217q56 248 216 380t390 132q193 0 338 -100l-76 -273q-78 55 -136 81t-126 26q-214 0 -284 -246h378v-199h-409v-116h409v-199h-378q69 -246 292 -246q131 0 263 101l75 -246q-172 -107 -379 -107q-224 0 -375.5 127.5 t-203.5 370.5h-211z" />
<glyph unicode="&#x2122;" horiz-adv-x="1636" d="M25 1311v164h583v-164h-184v-533h-215v533h-184zM639 778l68 697h264l90 -330q24 -84 31 -135h4q7 55 30 131l103 334h258l61 -697h-207l-16 309q-2 36 -2 173h-4q-7 -57 -37 -152l-102 -330h-185l-100 330q-31 105 -37 152h-4q0 -137 -2 -173l-16 -309h-197z" />
<glyph unicode="&#xe000;" horiz-adv-x="1044" d="M0 0v1044h1044v-1044h-1044z" />
<glyph unicode="&#xfb01;" horiz-adv-x="1263" d="M33 803v241h149v86q0 187 87.5 272t285.5 85q67 0 119 -8v-238q-33 8 -66 8q-55 0 -75.5 -28t-20.5 -91v-86h162v-241h-162v-803h-330v803h-149zM776 1335q0 76 51.5 124t135.5 48t134 -48t50 -124t-50 -124t-134 -48t-135.5 48t-51.5 124zM797 0v1044h329v-1044h-329z " />
<glyph unicode="&#xfb02;" horiz-adv-x="1263" d="M33 803v241h149v86q0 187 87.5 272t285.5 85q67 0 119 -8v-238q-33 8 -66 8q-55 0 -75.5 -28t-20.5 -91v-86h162v-241h-162v-803h-330v803h-149zM797 0v1475h329v-1475h-329z" />
<glyph unicode="&#xfb03;" horiz-adv-x="1892" d="M33 803v241h149v86q0 187 89 272t290 85q69 0 121 -8v-238q-36 8 -68 8q-59 0 -80.5 -28t-21.5 -91v-86h299v86q0 187 87.5 272t285.5 85q67 0 119 -8v-238q-33 8 -66 8q-55 0 -75.5 -28t-20.5 -91v-86h162v-241h-162v-803h-330v803h-299v-803h-330v803h-149zM1405 1335 q0 76 51 124t135 48t134.5 -48t50.5 -124t-50.5 -124t-134.5 -48t-135 48t-51 124zM1425 0v1044h330v-1044h-330z" />
<glyph unicode="&#xfb04;" horiz-adv-x="1892" d="M33 803v241h149v86q0 187 89 272t290 85q69 0 121 -8v-238q-36 8 -68 8q-59 0 -80.5 -28t-21.5 -91v-86h299v86q0 187 87.5 272t285.5 85q67 0 119 -8v-238q-33 8 -66 8q-55 0 -75.5 -28t-20.5 -91v-86h162v-241h-162v-803h-330v803h-299v-803h-330v803h-149zM1425 0 v1475h330v-1475h-330z" />
</font>
</defs>
</svg>
